<svg id="Capa_1" enable-background="new 0 0 512 512" height="512" viewBox="0 0 512 512" width="512" xmlns="http://www.w3.org/2000/svg"><g><g><path d="m69.81 199.12 40.78 299.89c.98 7.43 7.33 12.99 14.82 12.99h261.18c7.49 0 13.84-5.56 14.82-12.99l40.78-299.89zm118.77 271.72c-7.62 0-14.14-5.8-14.87-13.54l-18.94-200.67c-.78-8.22 5.25-15.51 13.47-16.28 8.22-.79 15.51 5.25 16.28 13.47l18.95 200.67c.824 8.679-5.96 16.35-14.89 16.35zm82.37-14.94c0 8.25-6.7 14.94-14.95 14.94s-14.95-6.69-14.95-14.94v-200.68c0-8.25 6.7-14.94 14.95-14.94s14.95 6.69 14.95 14.94zm86.28-199.27-18.94 200.67c-.75 7.952-7.714 14.195-16.29 13.48-8.22-.78-14.25-8.07-13.47-16.29l18.95-200.67c.77-8.22 8.08-14.25 16.28-13.47 8.22.77 14.25 8.06 13.47 16.28z"/></g><path d="m450.465 95.676h-388.93c-9.247 0-16.743 7.496-16.743 16.743v40.069c0 9.247 7.496 16.743 16.743 16.743h388.93c9.247 0 16.743-7.496 16.743-16.743v-40.069c0-9.247-7.496-16.743-16.743-16.743z"/><g><path d="m258.65 0h-5.3c-36.556 0-66.386 29.392-67.074 65.788h29.89c.687-19.907 17.107-35.898 37.184-35.898h5.3c20.076 0 36.496 15.991 37.184 35.898h29.89c-.687-36.396-30.518-65.788-67.074-65.788z"/></g></g></svg>